<?xml version="1.0" standalone="no"?>
<!DOCTYPE svg PUBLIC "-//W3C//DTD SVG 20010904//EN"
 "http://www.w3.org/TR/2001/REC-SVG-20010904/DTD/svg10.dtd">
<svg version="1.0" xmlns="http://www.w3.org/2000/svg"
 width="300.000000pt" height="199.000000pt" viewBox="0 0 300.000000 199.000000"
 preserveAspectRatio="xMidYMid meet">
<metadata>
Created by potrace 1.10, written by Peter Selinger 2001-2011
</metadata>
<g transform="translate(0.000000,199.000000) scale(0.100000,-0.100000)"
fill="#000000" stroke="none">
<path d="M2263 1843 c-15 -21 -40 -49 -55 -62 -26 -22 -27 -25 -10 -37 15 -12
15 -13 1 -14 -22 0 -42 -25 -45 -55 -4 -37 13 -40 30 -6 9 16 25 32 36 36 23
7 26 21 8 28 -7 2 -10 8 -6 12 4 4 14 2 23 -5 9 -7 15 -8 15 -2 0 6 -6 12 -12
14 -22 8 8 58 34 58 21 1 21 2 6 11 -16 9 -16 12 10 34 21 19 23 24 10 25 -9
0 -30 -17 -45 -37z"/>
<path d="M2360 1830 c-7 -17 -17 -30 -22 -30 -14 0 -38 -27 -31 -34 4 -3 15 2
26 11 11 10 17 12 13 6 -4 -7 -4 -13 -1 -13 3 0 13 16 21 36 12 29 17 34 29
24 10 -8 15 -9 15 -2 0 6 -8 16 -19 21 -16 9 -21 6 -31 -19z"/>
<path d="M1913 1834 c-18 -9 -33 -21 -33 -26 0 -5 5 -6 10 -3 18 11 11 -14
-10 -35 -13 -13 -19 -29 -16 -45 3 -17 -3 -34 -19 -51 -14 -15 -22 -30 -19
-35 8 -14 46 -11 41 4 -2 6 5 20 16 30 16 14 17 17 4 17 -13 0 -13 5 4 39 10
22 23 43 29 46 5 3 10 14 10 24 0 10 10 26 23 34 30 21 2 22 -40 1z"/>
<path d="M2190 1840 c-8 -5 -23 -7 -32 -4 -10 3 -18 1 -18 -5 0 -15 43 -14 58
1 10 10 15 10 21 0 7 -11 9 -10 14 2 7 18 -19 22 -43 6z"/>
<path d="M1731 1801 c-23 -19 -30 -30 -22 -35 13 -8 41 10 41 27 0 5 8 16 18
23 9 7 13 13 7 13 -5 0 -25 -12 -44 -28z"/>
<path d="M2080 1820 c0 -6 10 -14 22 -19 15 -5 18 -10 9 -15 -6 -4 -19 -5 -27
-2 -8 3 -22 2 -32 -3 -9 -5 -25 -12 -34 -15 -10 -3 -18 -15 -18 -26 0 -11 -5
-20 -12 -20 -9 0 -9 -3 1 -12 10 -11 14 -10 22 5 6 9 15 17 20 17 14 0 39 26
39 39 0 6 7 8 15 5 8 -3 23 1 35 9 l21 14 -25 17 c-29 19 -36 20 -36 6z"/>
<path d="M2423 1800 c-6 -19 -14 -48 -18 -65 -4 -16 -27 -60 -51 -97 -48 -72
-110 -120 -179 -140 -53 -15 -63 -25 -25 -25 16 0 30 3 30 7 0 4 7 7 15 7 8 0
15 -4 15 -9 0 -11 65 26 98 56 49 43 102 136 118 202 17 74 15 120 -3 64z"/>
<path d="M2483 1750 c-4 -48 -115 -233 -138 -228 -6 2 -12 -1 -14 -7 -7 -24
-35 -45 -54 -39 -13 4 -17 2 -13 -5 4 -6 1 -12 -6 -12 -7 -1 -19 -2 -27 -3 -8
0 -15 -7 -17 -14 -1 -7 0 -8 3 -2 7 15 23 12 23 -5 0 -9 13 -18 32 -22 l32 -6
-34 -13 -35 -14 38 5 c22 3 53 -1 74 -10 40 -17 70 -11 148 27 l40 20 -32 -31
c-17 -18 -35 -32 -40 -33 -4 0 -23 -6 -42 -14 -18 -8 -59 -14 -90 -15 l-56 -1
40 -12 c26 -8 34 -15 25 -19 -10 -3 -8 -6 8 -6 12 -1 22 -5 22 -11 0 -5 5 -10
10 -10 6 0 10 8 10 18 0 14 2 15 10 2 9 -13 11 -13 19 0 7 9 6 17 0 21 -6 3 7
13 28 22 21 8 63 42 95 77 36 38 62 59 69 54 7 -4 9 -3 5 4 -3 6 -2 13 4 17 6
4 8 11 4 16 -9 16 23 75 59 105 17 15 25 24 17 21 -8 -4 -23 -10 -32 -13 -10
-4 -18 -11 -18 -16 0 -14 -111 -128 -120 -123 -4 3 -11 -2 -14 -11 -3 -9 -13
-14 -20 -11 -8 3 -20 0 -26 -8 -16 -19 -96 -55 -122 -55 -21 1 -20 2 7 17 50
27 138 100 180 150 36 42 105 160 105 177 0 17 -19 -8 -45 -60 -31 -61 -136
-175 -201 -217 -21 -14 -61 -28 -89 -32 -42 -5 -47 -4 -30 6 40 25 136 113
149 138 41 76 76 161 76 186 0 23 -16 18 -17 -5z m122 -240 c-3 -5 -1 -10 5
-10 6 0 8 -5 4 -12 -6 -9 -9 -9 -12 0 -2 7 -14 -1 -29 -19 -27 -31 -136 -89
-169 -89 -10 0 13 15 51 34 39 18 88 50 110 69 42 38 50 43 40 27z"/>
<path d="M2346 1738 c-13 -17 -16 -18 -12 -5 3 10 2 15 -4 12 -6 -3 -10 -12
-10 -19 0 -7 -9 -25 -20 -39 -11 -14 -20 -30 -20 -36 0 -22 17 -10 36 24 10
19 21 35 25 35 3 0 11 11 17 25 14 31 10 32 -12 3z"/>
<path d="M2135 1737 c-16 -7 -46 -21 -65 -31 -19 -10 -47 -19 -63 -18 -16 0
-31 -6 -34 -14 -3 -8 -16 -14 -30 -14 -20 0 -23 -3 -14 -14 14 -16 -3 -73 -30
-99 -25 -24 -24 -29 4 -16 13 6 34 28 47 50 14 21 30 39 37 39 7 0 13 11 13
24 0 17 7 27 23 31 27 8 147 66 147 71 0 5 2 5 -35 -9z"/>
<path d="M2278 1703 c-25 -47 -30 -52 -78 -71 -24 -10 -23 -10 10 -9 19 1 40
7 45 12 16 16 59 105 53 110 -3 3 -17 -16 -30 -42z"/>
<path d="M1536 1695 c-14 -13 -26 -27 -26 -30 0 -10 34 12 54 34 27 29 5 26
-28 -4z"/>
<path d="M1727 1668 c-10 -5 -21 -7 -26 -3 -22 13 -18 -14 4 -35 l25 -23 0 24
c0 18 3 20 9 10 9 -14 41 -9 41 6 0 17 -36 31 -53 21z"/>
<path d="M2028 1652 c-23 -9 -10 -26 22 -30 47 -5 50 -5 50 -11 0 -4 -10 -15
-22 -25 -16 -14 -23 -16 -26 -7 -3 8 -9 5 -19 -9 -8 -12 -13 -24 -10 -27 8 -7
77 36 77 47 0 5 12 16 28 25 l27 15 -25 -1 c-37 -2 -91 12 -84 22 6 10 5 10
-18 1z"/>
<path d="M1509 1636 c-2 -3 -27 -7 -54 -10 -69 -7 -105 -16 -105 -28 0 -7 16
-8 43 -3 23 4 59 9 80 11 21 2 45 8 55 13 9 5 20 8 24 8 3 -1 9 0 12 3 3 3 -7
7 -23 8 -15 1 -30 0 -32 -2z"/>
<path d="M1326 1611 c-4 -5 -32 -15 -64 -21 -31 -7 -76 -21 -99 -31 -23 -10
-47 -19 -52 -19 -15 0 -140 -67 -181 -97 -92 -68 -170 -137 -170 -149 0 -7 -6
-12 -12 -10 -7 2 -33 -19 -58 -47 -25 -28 -39 -47 -32 -43 6 4 12 5 12 1 0 -3
-11 -10 -25 -15 -16 -6 -25 -18 -26 -32 0 -13 -3 -17 -6 -10 -4 10 -9 7 -20
-8 -23 -33 -4 -39 23 -7 13 16 33 29 43 30 11 0 18 4 16 7 -2 3 4 16 14 28 18
24 54 22 45 -3 -5 -12 23 -25 54 -25 10 0 10 5 1 21 -10 19 -9 20 13 14 12 -4
25 -9 27 -11 2 -2 -26 -33 -63 -69 -64 -65 -72 -76 -60 -87 5 -6 76 64 108
107 13 17 15 18 16 3 0 -9 4 -19 8 -22 5 -3 7 7 4 22 -5 36 30 71 52 52 13
-10 20 -7 40 17 31 34 32 43 6 36 -12 -3 -20 0 -20 6 0 7 -5 9 -10 6 -8 -5 -7
-12 1 -22 19 -22 -8 -35 -32 -15 -18 16 -18 17 4 36 12 12 25 22 29 22 5 1 13
2 19 3 6 0 8 8 5 17 -5 14 -4 15 9 4 9 -8 15 -8 15 -2 0 6 -5 14 -11 17 -6 4
-8 13 -5 21 3 8 1 14 -4 14 -6 0 -10 -7 -10 -16 0 -8 -4 -13 -9 -10 -5 4 -7
-3 -4 -14 4 -16 2 -19 -12 -13 -12 4 -16 3 -12 -4 4 -6 0 -13 -8 -17 -8 -3
-15 -1 -15 4 0 6 -5 10 -11 10 -6 0 -9 -7 -5 -15 3 -9 0 -15 -9 -15 -20 0 -19
-9 2 -32 15 -16 15 -21 3 -28 -17 -11 -30 -4 -30 16 0 8 -4 14 -9 14 -21 0
-41 -13 -41 -26 0 -18 -14 -18 -29 -1 -8 11 -4 19 17 38 15 13 32 22 39 21 7
-1 9 5 6 17 -4 16 -1 19 15 14 17 -4 20 -1 15 15 -6 24 16 40 28 21 6 -10 9
-8 9 9 0 16 4 21 13 15 22 -14 39 -13 27 2 -8 10 -6 15 9 20 12 3 21 11 21 16
0 5 7 9 16 9 8 0 12 5 9 10 -3 6 5 10 19 10 19 0 24 4 19 16 -5 13 -2 15 15
10 17 -6 21 -4 16 7 -8 21 35 34 48 16 6 -10 7 -7 3 9 -6 22 1 27 33 23 6 -1
12 6 12 15 0 9 6 14 13 11 7 -3 24 4 38 14 13 10 38 19 56 19 17 0 34 4 37 9
3 5 15 7 25 4 13 -3 23 2 31 17 11 21 8 41 -4 21z"/>
<path d="M1748 1588 c-15 -18 -26 -33 -24 -35 8 -8 57 18 63 33 12 31 -12 33
-39 2z"/>
<path d="M2219 1603 c-1 -5 -1 -11 0 -15 2 -12 -14 -9 -27 4 -9 9 -12 9 -12 0
0 -7 5 -12 10 -12 6 0 10 -4 10 -10 0 -5 -6 -10 -14 -10 -7 0 -19 -7 -26 -15
-11 -13 -15 -13 -21 -3 -7 11 -9 10 -9 0 0 -8 -10 -22 -22 -32 -36 -29 -17
-31 37 -4 53 27 106 76 104 96 0 10 -2 10 -6 1 -2 -7 -9 -13 -14 -13 -6 0 -7
5 -4 10 3 6 4 10 1 10 -3 0 -7 -3 -7 -7z"/>
<path d="M1808 1563 c-17 -34 -10 -44 12 -18 6 8 10 22 8 32 -3 14 -7 11 -20
-14z"/>
<path d="M2006 1532 c-13 -12 -5 -22 19 -22 14 0 25 4 25 9 0 10 -36 21 -44
13z"/>
<path d="M2710 1490 c-13 -28 -26 -50 -29 -50 -3 0 -17 -16 -30 -35 -13 -19
-34 -41 -46 -48 -12 -6 -38 -20 -56 -30 l-34 -18 30 27 c94 83 115 105 115
124 0 11 5 19 11 18 6 -2 13 2 16 8 9 27 -33 7 -45 -21 -7 -16 -29 -42 -48
-58 -19 -16 -31 -34 -27 -40 4 -6 1 -8 -9 -5 -8 4 -28 -4 -44 -18 -16 -13 -37
-23 -46 -24 -22 0 -43 -36 -25 -43 12 -4 50 9 125 46 51 24 123 103 153 165
11 24 18 46 16 48 -2 2 -14 -19 -27 -46z"/>
<path d="M2766 1435 c-10 -50 -41 -111 -63 -124 -10 -6 -14 -11 -9 -11 5 0 3
-8 -5 -17 -7 -10 2 -4 19 12 32 31 76 133 69 164 -1 9 -7 -2 -11 -24z"/>
<path d="M1478 1449 c12 -12 124 -17 113 -6 -6 6 -35 11 -65 11 -30 1 -52 -2
-48 -5z"/>
<path d="M1770 1448 c14 -6 53 -24 87 -39 41 -19 76 -29 105 -28 l43 2 -50 6
c-46 6 -102 28 -93 36 2 2 24 -2 48 -10 25 -8 62 -17 84 -21 21 -3 36 -8 33
-10 -8 -8 66 -72 99 -86 16 -7 48 -26 72 -42 23 -16 46 -25 50 -21 4 4 1 10
-5 12 -7 3 -13 10 -13 16 0 15 -41 42 -58 39 -6 -2 -16 7 -21 20 -11 28 -49
64 -58 55 -3 -4 4 -18 17 -32 36 -39 14 -43 -25 -5 -38 37 -43 50 -21 50 8 0
18 5 22 12 5 8 -2 9 -24 5 -19 -4 -32 -2 -32 3 0 6 -7 10 -15 10 -9 0 -27 7
-40 16 -18 12 -54 17 -128 19 -78 2 -96 1 -77 -7z"/>
<path d="M1301 1446 c11 -11 90 -33 94 -26 2 4 -13 12 -34 19 -39 11 -68 15
-60 7z"/>
<path d="M1215 1425 c-22 -8 -41 -15 -42 -15 -2 0 -3 -9 -3 -20 0 -15 -7 -20
-27 -21 -39 -1 -70 -14 -55 -23 16 -10 92 12 98 29 3 7 23 21 45 29 21 9 39
20 39 26 0 13 -6 12 -55 -5z"/>
<path d="M2677 1369 c-20 -16 -36 -35 -34 -41 1 -6 -4 -13 -12 -16 -8 -3 -11
0 -7 7 11 18 1 13 -39 -19 -24 -19 -49 -30 -69 -30 -18 0 -37 -5 -44 -12 -8
-8 -15 -8 -25 1 -12 9 -18 6 -31 -13 -22 -35 -20 -47 7 -41 13 4 31 7 41 9 10
1 21 7 24 13 4 5 24 13 45 17 20 4 37 11 37 16 0 5 10 12 22 16 26 8 63 41 63
57 1 7 6 11 13 10 7 -2 11 1 10 6 -2 4 8 18 22 29 14 12 23 21 20 22 -3 0 -22
-14 -43 -31z"/>
<path d="M1026 1375 c-11 -9 -16 -20 -12 -31 5 -12 9 -14 20 -5 7 6 16 8 19 4
4 -3 6 6 5 20 -3 31 -6 32 -32 12z"/>
<path d="M1760 1370 c9 -16 8 -22 -5 -26 -8 -3 -15 -10 -15 -16 0 -5 4 -6 10
-3 8 5 44 -8 59 -21 2 -2 -7 -13 -20 -25 -16 -14 -18 -19 -7 -15 24 7 42 -18
29 -42 -5 -10 -7 -28 -4 -40 3 -12 1 -22 -5 -22 -12 0 -23 -40 -11 -41 44 -6
44 -7 47 74 2 55 -2 87 -13 109 -8 17 -15 39 -15 50 0 16 -11 23 -32 19 -5 0
-8 4 -8 9 0 6 -5 10 -10 10 -7 0 -7 -7 0 -20z"/>
<path d="M1353 1326 c-27 -29 -29 -57 -5 -78 34 -30 58 -31 81 -2 25 32 26 43
3 70 -28 34 -54 37 -79 10z m57 -31 c14 -27 13 -32 -10 -35 -40 -6 -56 20 -28
48 17 17 23 15 38 -13z"/>
<path d="M990 1331 c0 -5 7 -16 15 -24 8 -8 11 -17 8 -21 -4 -3 -1 -6 6 -6 6
0 14 7 17 15 4 8 12 15 20 15 8 0 14 5 14 11 0 6 -8 8 -20 4 -10 -3 -28 -1
-40 5 -12 6 -20 7 -20 1z"/>
<path d="M1575 1330 c-3 -5 1 -10 9 -10 8 0 26 -5 40 -11 20 -10 23 -15 16
-30 -12 -22 3 -34 19 -15 8 10 7 21 -5 45 -12 24 -22 31 -44 31 -16 0 -32 -4
-35 -10z"/>
<path d="M971 1312 c12 -20 12 -24 -1 -33 -11 -8 -12 -12 -2 -16 6 -2 10 -9 7
-14 -4 -5 0 -6 8 -3 21 8 18 50 -6 71 -19 18 -20 18 -6 -5z"/>
<path d="M1171 1301 c-16 -12 -20 -20 -12 -25 13 -8 44 19 39 34 -2 5 -14 1
-27 -9z"/>
<path d="M1240 1261 c-33 -63 21 -190 92 -213 11 -4 10 -8 -2 -24 -15 -18 -14
-18 13 -1 27 17 28 17 36 -5 5 -13 7 -26 4 -30 -2 -5 1 -8 7 -8 6 0 8 10 4 27
-6 21 -4 25 8 21 8 -3 34 5 59 18 24 13 51 27 59 30 8 3 23 24 33 47 23 56 22
83 -2 32 -59 -128 -200 -141 -279 -25 -20 30 -23 43 -19 93 5 61 3 68 -13 38z"/>
<path d="M1113 1250 c3 -11 0 -20 -6 -20 -6 0 -7 -3 -4 -6 9 -9 37 15 37 32 0
8 -7 14 -16 14 -11 0 -15 -6 -11 -20z"/>
<path d="M1032 1243 c5 -26 44 -28 58 -4 7 14 7 21 0 21 -5 0 -10 -5 -10 -10
0 -7 -6 -7 -19 0 -27 14 -33 13 -29 -7z"/>
<path d="M2350 1241 c0 -12 29 -23 41 -15 18 10 9 24 -16 24 -14 0 -25 -4 -25
-9z"/>
<path d="M2597 1236 c-10 -8 -39 -17 -64 -21 -29 -4 -42 -10 -33 -15 7 -4 28
-3 47 2 41 11 105 48 83 48 -8 -1 -23 -7 -33 -14z"/>
<path d="M2683 1220 c-12 -15 -44 -38 -70 -50 -40 -19 -53 -21 -79 -11 -41 15
-53 13 -30 -4 19 -14 18 -15 -11 -15 -17 0 -40 -3 -50 -6 -15 -5 -15 -4 -3 5
13 9 13 11 -1 11 -8 0 -24 7 -35 15 -18 14 -16 15 23 13 23 -1 46 1 49 5 4 4
-13 7 -39 7 -52 0 -68 -13 -37 -32 24 -16 26 -38 3 -38 -10 0 -13 -3 -8 -9 6
-5 33 -5 65 0 122 19 160 22 160 12 0 -6 -26 -14 -57 -18 -46 -6 -53 -9 -33
-15 14 -3 28 -2 31 3 3 5 15 8 25 6 11 -1 26 0 34 4 8 3 57 13 108 21 51 9
112 23 136 31 50 17 139 65 133 72 -3 2 -30 -10 -61 -27 -30 -17 -61 -28 -67
-24 -8 4 -9 3 -5 -4 4 -7 1 -12 -10 -12 -12 0 -15 6 -11 23 6 21 6 21 -13 -3
-11 -14 -20 -21 -20 -16 0 5 -7 3 -15 -4 -17 -14 -185 -27 -185 -14 0 5 20 20
44 32 24 13 47 33 50 45 7 29 4 29 -21 -3z"/>
<path d="M1670 1223 c0 -9 3 -13 7 -10 3 4 15 0 25 -10 15 -13 18 -14 18 -2 0
19 -20 39 -37 39 -7 0 -13 -7 -13 -17z"/>
<path d="M983 1205 c-10 -11 -10 -21 2 -47 8 -18 14 -27 15 -20 0 6 7 12 16
12 11 0 14 6 9 21 -6 18 -4 20 14 14 16 -5 20 -3 15 10 -4 9 -13 14 -22 10 -8
-3 -20 -1 -26 4 -7 6 -16 4 -23 -4z"/>
<path d="M2226 1187 c-18 -40 -20 -57 -6 -57 5 0 13 12 16 28 4 15 12 30 18
34 8 5 8 10 0 18 -8 8 -16 2 -28 -23z"/>
<path d="M1150 1181 c-5 -11 -10 -24 -10 -29 0 -15 43 -23 55 -10 7 8 5 9 -7
5 -15 -5 -16 -1 -11 23 6 34 -10 41 -27 11z"/>
<path d="M712 1141 c7 -9 13 -17 14 -19 0 -1 9 7 18 17 17 19 17 20 -13 19
-27 -1 -29 -3 -19 -17z"/>
<path d="M1632 1138 c2 -13 11 -24 21 -26 21 -4 22 14 3 34 -21 20 -28 17 -24
-8z"/>
<path d="M1011 1121 c-12 -8 -12 -16 3 -56 10 -25 29 -59 43 -75 14 -17 22
-30 19 -30 -4 0 -2 -9 4 -21 7 -11 17 -18 24 -16 7 3 18 -4 24 -14 14 -22 32
-25 32 -6 -1 6 -15 21 -33 32 -17 11 -33 29 -35 40 -2 11 -13 28 -23 38 -24
22 -24 31 -2 23 10 -4 14 -4 10 0 -4 4 1 13 11 20 21 16 0 19 -29 4 -30 -16
-43 -2 -25 26 26 39 14 58 -23 35z"/>
<path d="M2230 1100 c0 -19 20 -27 33 -13 8 7 -11 33 -24 33 -5 0 -9 -9 -9
-20z"/>
<path d="M680 1090 c-16 -13 -20 -20 -10 -20 9 0 2 -11 -18 -29 -39 -36 -39
-42 -7 -77 14 -15 25 -22 25 -16 0 6 -6 17 -14 24 -11 11 -10 18 10 48 13 19
24 40 24 46 0 7 5 14 12 16 6 2 9 9 7 16 -3 7 -12 4 -29 -8z"/>
<path d="M1795 1087 c-28 -17 -33 -26 -28 -48 6 -21 -17 -55 -26 -41 -11 15
-71 41 -76 32 -3 -5 8 -17 25 -27 18 -10 28 -23 25 -31 -3 -7 1 -20 9 -27 12
-12 17 -11 32 13 42 63 80 142 66 141 -4 0 -16 -6 -27 -12z"/>
<path d="M2336 1053 c-16 -47 -16 -48 3 -24 15 20 26 71 16 71 -2 0 -10 -21
-19 -47z"/>
<path d="M2290 1030 c-13 -31 -7 -51 9 -34 15 14 25 64 13 64 -5 0 -15 -14
-22 -30z"/>
<path d="M2640 1050 c28 -9 156 -13 148 -5 -3 3 -43 7 -89 9 -50 2 -74 0 -59
-4z"/>
<path d="M1590 1040 c0 -6 -4 -9 -8 -6 -13 8 -32 -8 -24 -20 4 -6 21 -14 37
-18 29 -7 29 -7 10 8 -19 14 -19 15 -2 16 10 0 17 5 15 12 -6 16 -28 23 -28 8z"/>
<path d="M573 983 c-66 -70 -96 -143 -59 -143 18 0 27 25 14 38 -7 7 -4 16 11
28 11 10 21 24 21 30 0 26 36 20 62 -10 21 -23 28 -27 28 -14 0 9 -5 20 -11
23 -5 4 -14 18 -20 32 -6 15 -13 22 -21 17 -7 -4 -4 2 6 14 33 38 5 24 -31
-15z"/>
<path d="M2184 995 c-4 -8 -16 -15 -29 -15 -19 0 -22 -4 -17 -22 4 -16 2 -20
-10 -15 -9 3 -30 -6 -49 -23 -19 -16 -44 -29 -56 -30 -12 0 -28 -6 -35 -13 -7
-7 -33 -19 -58 -27 -25 -7 -49 -17 -54 -21 -5 -4 -15 -5 -22 -2 -8 3 -14 1
-14 -4 0 -6 -12 -10 -27 -11 -47 0 -267 -34 -293 -44 -28 -11 -186 -15 -197
-5 -10 11 -83 8 -83 -3 0 -5 -10 -10 -22 -9 -13 0 -17 3 -10 6 17 7 -4 33 -27
34 -12 0 -12 2 4 10 16 7 12 8 -17 6 -20 -2 -35 0 -32 4 4 7 -55 17 -141 24
-28 2 -66 8 -86 13 -21 5 -43 6 -50 1 -8 -5 -27 -6 -42 -3 -16 3 -26 2 -25 -4
5 -16 -42 -73 -54 -66 -7 5 -8 2 -3 -5 5 -9 13 -7 31 10 25 24 34 11 9 -14 -8
-8 -11 -17 -8 -21 11 -10 23 -7 20 7 -1 6 3 11 9 10 6 -1 9 8 7 21 -3 16 1 25
13 30 9 3 19 4 22 1 3 -3 0 -5 -6 -5 -7 0 -12 -4 -12 -8 0 -13 62 -5 71 10 7
10 9 9 9 -5 0 -10 -10 -22 -22 -28 -22 -9 -21 -9 5 -6 36 5 34 1 -10 -22 -52
-28 -35 -26 29 3 82 36 101 42 131 38 34 -4 34 -15 2 -40 -14 -11 -25 -25 -25
-31 0 -6 -6 -8 -14 -5 -8 3 -22 -7 -33 -23 -33 -47 -33 -50 -11 -48 14 1 34
21 57 55 20 29 43 56 51 58 13 5 13 3 2 -11 -8 -9 -11 -24 -8 -34 3 -10 1 -35
-3 -55 -5 -22 -5 -38 0 -38 5 0 12 18 15 40 4 22 11 43 15 46 5 3 9 10 9 16 0
7 -6 6 -15 -2 -12 -10 -15 -10 -15 4 0 8 13 22 28 30 26 13 29 13 40 -5 7 -10
12 -27 12 -37 0 -33 -63 -143 -90 -157 -15 -9 -19 -14 -10 -15 10 0 7 -7 -10
-20 -24 -18 -24 -19 -3 -14 13 4 44 38 74 83 44 64 53 84 53 123 1 38 4 46 19
45 9 -1 17 -7 17 -15 0 -7 5 -10 10 -7 6 3 10 -3 10 -14 0 -11 -5 -23 -11 -27
-6 -3 -9 -17 -6 -30 2 -13 1 -22 -2 -20 -7 3 -35 -27 -37 -40 -1 -5 -5 -20 -9
-34 -6 -21 -5 -23 6 -12 8 7 14 20 14 30 0 9 12 23 28 30 22 11 25 16 17 32
-7 14 -6 23 5 34 8 8 15 19 15 24 0 12 40 57 41 46 7 -58 -12 -110 -55 -155
-14 -15 -22 -30 -19 -33 4 -3 2 -6 -4 -6 -6 0 -14 -8 -17 -17 -3 -10 14 6 40
35 25 28 52 52 59 52 7 0 15 7 19 15 3 8 1 15 -5 15 -6 0 -3 10 5 22 9 12 16
30 16 40 0 11 7 16 20 15 11 -1 20 -5 20 -10 0 -5 16 -6 35 -3 20 4 45 4 57 0
19 -6 20 -11 14 -81 -3 -41 -13 -99 -22 -129 -8 -30 -13 -60 -11 -67 2 -6 8 2
12 18 15 66 33 110 38 95 3 -8 8 -24 11 -34 13 -40 15 -8 2 41 -8 30 -10 56
-5 66 6 9 5 26 -1 43 -6 15 -8 29 -5 32 3 4 8 -4 12 -16 3 -12 10 -19 16 -15
6 4 8 0 4 -11 -4 -10 -3 -15 3 -11 12 7 14 46 3 43 -11 -4 -58 30 -51 37 7 8
38 -5 38 -16 0 -5 5 -9 11 -9 5 0 8 4 5 9 -3 5 1 11 9 15 8 3 17 1 20 -4 10
-16 35 -12 29 5 -4 8 -2 15 4 15 6 0 13 -6 15 -12 4 -10 6 -9 6 1 1 11 4 11
17 0 11 -9 17 -10 23 -1 4 7 17 9 36 4 31 -9 52 -52 61 -127 l5 -40 -18 36
c-10 20 -24 43 -31 52 -8 9 -15 24 -16 33 -2 10 -12 18 -24 19 -23 2 -21 -7 9
-40 43 -48 79 -134 80 -192 1 -49 3 -52 8 -23 5 28 8 31 14 17 10 -27 9 -105
-3 -128 -6 -10 -8 -19 -5 -19 3 0 12 15 20 33 14 33 8 91 -14 150 -6 16 -11
35 -11 44 0 13 2 14 18 2 15 -13 16 -12 3 3 -12 16 -39 123 -43 168 0 8 -6 18
-12 22 -7 5 -6 8 3 8 8 0 20 -8 28 -17 8 -10 12 -12 8 -5 -14 28 70 -5 100
-39 18 -20 16 -20 -28 6 -26 15 -50 25 -53 23 -2 -3 9 -11 26 -18 17 -7 37
-22 45 -32 7 -11 18 -17 24 -14 10 7 51 -49 51 -69 -1 -5 -10 7 -21 28 -11 20
-22 37 -24 37 -3 0 2 -14 10 -30 9 -17 13 -35 10 -40 -3 -6 -1 -10 5 -10 18 0
31 -47 20 -75 -8 -20 -6 -23 6 -18 14 5 15 -3 12 -53 -2 -32 -8 -68 -12 -79
-4 -11 0 -7 9 9 14 24 16 44 10 122 -4 52 -11 92 -16 88 -11 -6 -11 4 1 31 5
11 9 14 9 8 1 -7 6 -13 12 -13 8 0 8 5 -1 15 -7 8 -16 13 -20 10 -4 -3 -13 10
-20 28 -8 17 -31 49 -53 71 -30 29 -36 41 -25 47 8 5 17 4 23 -4 12 -15 101
-15 116 0 7 7 4 12 -10 16 -12 3 -21 1 -21 -4 0 -5 -18 -9 -40 -9 -22 0 -40 5
-40 10 0 6 11 10 24 10 13 0 44 8 68 18 50 20 107 21 163 3 53 -18 73 -33 114
-84 19 -23 31 -34 28 -24 -4 10 -7 23 -7 29 0 14 -88 98 -103 98 -7 0 -4 7 5
14 15 11 16 15 3 32 -14 18 -14 18 -15 -3 0 -12 -5 -25 -12 -29 -17 -11 -108
-13 -108 -3 0 5 7 9 16 9 8 0 22 7 30 15 8 8 22 11 31 8 11 -4 14 -2 9 5 -3 6
3 16 14 22 11 6 18 15 15 19 -12 20 25 18 39 -2 15 -22 15 -22 15 7 1 18 10
35 27 49 25 19 26 21 8 28 -28 11 -34 10 -40 -6z"/>
<path d="M1655 970 c-17 -18 -20 -19 -36 -4 -9 8 -19 11 -22 6 -4 -4 2 -15 12
-24 22 -19 56 -8 64 21 6 26 5 26 -18 1z"/>
<path d="M2248 953 c-10 -3 -18 -9 -18 -14 0 -5 8 -13 18 -16 9 -4 20 -11 24
-17 4 -6 10 -3 14 8 8 22 -14 44 -38 39z"/>
<path d="M1420 930 c0 -7 7 -9 16 -6 13 5 15 2 11 -13 -3 -11 1 -22 8 -25 10
-3 13 3 11 22 -2 19 -10 28 -25 30 -11 2 -21 -2 -21 -8z"/>
<path d="M1589 905 c14 -30 20 -34 41 -29 14 3 34 8 44 10 21 4 53 31 45 38
-12 11 -49 16 -49 7 0 -6 -7 -11 -15 -11 -8 0 -15 -6 -15 -14 0 -28 -19 -26
-36 4 -25 41 -35 38 -15 -5z"/>
<path d="M2295 908 c-25 -77 -25 -90 5 -132 16 -23 32 -53 36 -69 3 -15 11
-30 16 -33 15 -10 0 34 -33 92 -31 54 -39 81 -15 48 8 -10 18 -16 22 -12 4 5
0 16 -9 26 -18 20 -23 62 -8 62 5 0 25 -19 46 -41 29 -33 36 -36 30 -18 -14
46 -81 103 -90 77z"/>
<path d="M1330 869 c-23 -10 -24 -11 -6 -21 18 -10 35 2 36 25 0 8 2 8 -30 -4z"/>
<path d="M2221 860 c9 -14 24 -26 33 -28 27 -6 18 13 -16 33 l-33 19 16 -24z"/>
<path d="M2210 810 c17 -22 36 -40 42 -40 12 0 -53 78 -65 79 -5 1 6 -17 23
-39z"/>
<path d="M670 825 c-7 -9 -10 -19 -6 -22 4 -4 10 -3 14 2 4 6 25 11 47 13 21
1 44 7 49 12 15 15 -37 12 -53 -2 -11 -10 -14 -10 -18 0 -6 16 -18 15 -33 -3z"/>
<path d="M1270 837 c0 -3 7 -13 16 -21 14 -15 13 -17 -8 -25 -19 -8 -16 -10
22 -9 25 0 37 2 27 5 -26 7 -15 27 19 34 21 5 23 7 8 8 -12 0 -36 4 -53 7 -17
4 -31 4 -31 1z"/>
<path d="M490 827 c0 -9 82 -58 88 -53 3 3 1 6 -5 6 -6 0 -13 7 -17 15 -4 13
-2 13 14 5 26 -14 43 -13 66 6 19 15 19 16 -1 9 -11 -4 -29 -9 -40 -12 -17 -4
-17 -3 -5 6 12 9 6 11 -25 10 -22 -1 -48 2 -57 6 -10 4 -18 5 -18 2z"/>
<path d="M1357 796 c-6 -16 13 -26 46 -25 18 0 17 3 -8 12 l-30 11 35 7 35 6
-36 2 c-24 1 -39 -4 -42 -13z"/>
<path d="M2006 774 c16 -13 23 -23 17 -24 -7 0 -13 5 -13 10 0 15 -26 12 -39
-4 -10 -12 -3 -15 41 -21 29 -4 58 -10 63 -13 6 -4 16 -7 23 -8 23 -4 82 -55
107 -92 15 -23 28 -63 34 -106 12 -85 24 -101 16 -20 -5 49 -4 57 7 44 7 -8
22 -22 33 -30 15 -11 14 -7 -4 13 -14 15 -20 27 -15 27 5 0 4 4 -1 8 -6 4 -23
26 -39 49 -32 47 -110 123 -126 123 -7 0 -7 7 0 23 10 20 10 20 -3 5 -19 -23
-27 -22 -54 6 -13 13 -35 26 -49 29 l-26 5 28 -24z"/>
<path d="M2260 736 c0 -14 5 -28 10 -31 6 -4 21 -27 35 -53 13 -26 24 -40 25
-32 0 17 -56 140 -65 140 -3 0 -5 -11 -5 -24z"/>
<path d="M1950 712 c0 -4 16 -14 35 -20 68 -25 141 -151 154 -269 l8 -68 2 52
c1 57 -33 163 -69 213 -11 15 -20 32 -20 37 0 7 -91 63 -104 63 -3 0 -6 -4 -6
-8z"/>
<path d="M1350 695 c-10 -12 -10 -15 4 -15 9 0 16 -7 16 -15 0 -8 5 -15 10
-15 13 0 13 27 0 35 -6 4 -8 11 -5 16 10 15 -12 10 -25 -6z"/>
<path d="M1573 693 c9 -11 17 -30 17 -44 0 -16 3 -20 8 -11 13 20 42 -86 43
-159 2 -56 3 -59 8 -24 12 78 -30 219 -74 245 -19 12 -19 12 -2 -7z"/>
<path d="M1768 686 c-16 -12 -15 -15 12 -41 40 -38 89 -137 105 -210 l12 -60
4 43 c3 23 1 42 -3 42 -5 0 -8 6 -8 14 0 8 -24 61 -53 119 -47 94 -54 104 -69
93z"/>
<path d="M2090 691 c0 -7 7 -25 15 -41 9 -17 15 -33 14 -37 0 -4 4 -9 10 -11
6 -2 2 18 -10 44 -22 53 -29 64 -29 45z"/>
<path d="M1547 675 c-4 -8 -2 -17 4 -21 6 -3 8 -13 5 -21 -3 -8 -2 -12 3 -9 4
3 13 -6 19 -19 7 -16 8 -25 2 -25 -6 0 -3 -15 6 -32 10 -18 20 -58 24 -88 l7
-55 2 45 c1 54 -23 155 -47 190 -9 14 -15 31 -14 38 4 17 -5 15 -11 -3z"/>
<path d="M1526 628 c4 -13 8 -31 8 -40 0 -22 16 -24 16 -2 0 9 5 12 11 8 7 -4
1 7 -12 25 -27 37 -33 39 -23 9z"/>
<path d="M1348 536 c-3 -47 -11 -85 -22 -101 -10 -15 -16 -29 -14 -31 3 -2 14
14 26 35 16 28 23 57 23 101 2 87 -7 85 -13 -4z"/>
<path d="M914 587 c-5 -13 11 -67 20 -67 2 0 6 9 9 20 3 11 0 18 -7 17 -6 -1
-10 8 -8 21 4 24 -6 30 -14 9z"/>
<path d="M1810 519 c0 -5 -5 -7 -11 -4 -6 4 -1 -11 10 -34 12 -22 21 -57 22
-78 1 -36 1 -36 9 -11 9 29 -7 98 -22 98 -4 0 -8 5 -8 11 0 5 4 7 10 4 6 -3 7
1 4 9 -7 18 -14 21 -14 5z"/>
</g>
</svg>
